# xmcd CD database file
#
# Track frame offsets:
#	150
#	14779
#	28137
#	40838
#	64264
#	80023
#	105960
#	131813
#	158006
#	169927
#	185493
#	211499
#	226081
#	242168
#	256172
#
# Disc length: 3588 seconds
#
# Revision: 3
# Processed by: cddbd v1.5.2PL0 Copyright (c) Steve Scherf et al.
# Submitted via: CDex 1.70beta3
#
DISCID=cb0e020f
DTITLE=STEPPENWOLF - Steppenwolf +4
DYEAR=1968
DGENRE=Rock
TTITLE0=Sookie Sookie
TTITLE1=Everybody's Next One
TTITLE2=Berry Rides Again
TTITLE3=Hootchie Kootchie Man
TTITLE4=Born To Be Wild
TTITLE5=Your Wall's Too High
TTITLE6=Desperation
TTITLE7=The Pusher
TTITLE8=A Girl I Knew
TTITLE9=Take What You Need
TTITLE10=The Ostrich
TTITLE11=Sookie Sookie (Mono Single Version)
TTITLE12=Take What You Need (Mono Single Version)
TTITLE13=Born To Be Wild (Mono Single Version)
TTITLE14=Everybody's Next One (Mono Single Version)
EXTD=YEAR: 1968
EXTT0=
EXTT1=
EXTT2=
EXTT3=
EXTT4=
EXTT5=
EXTT6=
EXTT7=
EXTT8=
EXTT9=
EXTT10=
EXTT11=
EXTT12=
EXTT13=
EXTT14=
PLAYORDER=
